<svg width="511" height="326" viewBox="0 0 511 326" fill="none" xmlns="http://www.w3.org/2000/svg">
<rect width="511" height="326" fill="#F5F5F5"/>
<rect width="511" height="326" fill="white"/>
<circle cx="255" cy="163" r="61" fill="#D9D9D9"/>
<circle cx="254.5" cy="162.5" r="31.5" fill="white"/>
<path d="M342 163C342 151.575 339.75 140.262 335.378 129.707C331.005 119.151 324.597 109.56 316.518 101.482C308.44 93.403 298.849 86.9946 288.293 82.6225C277.738 78.2503 266.425 76 255 76C243.575 76 232.262 78.2503 221.707 82.6225C211.151 86.9946 201.56 93.403 193.482 101.482C185.403 109.56 178.995 119.151 174.622 129.707C170.25 140.262 168 151.575 168 163L197.766 163C197.766 155.484 199.246 148.041 202.123 141.098C204.999 134.154 209.215 127.844 214.53 122.53C219.844 117.215 226.154 112.999 233.098 110.123C240.041 107.246 247.484 105.766 255 105.766C262.516 105.766 269.959 107.246 276.902 110.123C283.846 112.999 290.156 117.215 295.47 122.53C300.785 127.844 305.001 134.154 307.877 141.098C310.754 148.041 312.234 155.484 312.234 163H342Z" fill="#D9D9D9"/>
</svg>
